<svg xmlns="http://www.w3.org/2000/svg"  viewBox="0 0 48 48" width="48px" height="48px"><linearGradient id="ZsloVEqqSeKFAYphLYdPya" x1=".029" x2="48.667" y1="40.428" y2="9.662" gradientUnits="userSpaceOnUse"><stop offset=".002" stop-color="#9c55d4"/><stop offset=".003" stop-color="#ff61d3"/><stop offset=".075" stop-color="#f760d6"/><stop offset=".19" stop-color="#e05cde"/><stop offset=".333" stop-color="#ba56ec"/><stop offset=".497" stop-color="#874eff"/><stop offset=".499" stop-color="#864eff"/><stop offset=".506" stop-color="#8451ff"/><stop offset=".678" stop-color="#4f90ff"/><stop offset=".824" stop-color="#28bfff"/><stop offset=".936" stop-color="#10dbff"/><stop offset="1" stop-color="#07e6ff"/></linearGradient><path fill="url(#ZsloVEqqSeKFAYphLYdPya)" d="M46.332,23.147l-2.016-0.999C42.852,16.838,39.115,11.762,34,8.762V7.781	c0-0.459-0.312-0.859-0.757-0.97L27.94,5.485C26.652,5.163,25.328,5,24,5s-2.652,0.163-3.94,0.485l-5.302,1.326	C14.312,6.922,14,7.322,14,7.781v0.982c-5.115,2.999-8.852,8.076-10.316,13.385l-2.016,0.999C0.646,23.653,0,24.695,0,25.835v1.969	c0,0.222,0.025,0.444,0.074,0.66l1.222,5.416C1.708,35.705,3.328,37,5.198,37h1.711c3.617,3.796,9.557,6,17.092,6	s13.475-2.204,17.092-6h1.711c1.87,0,3.49-1.295,3.902-3.119l1.222-5.416C47.975,28.248,48,28.026,48,27.804v-1.969	C48,24.695,47.354,23.653,46.332,23.147z M24,38c-3.753,0-16-0.793-16-11c0-7.399,6.989-16,16-16s16,8.601,16,16	C40,37.207,27.753,38,24,38z"/><path d="M24,10c-9.574,0-17,9.138-17,17c0,11.135,13.012,12,17,12s17-0.865,17-12C41,19.138,33.574,10,24,10z" opacity=".05"/><path d="M24,10.5c-9.292,0-16.5,8.87-16.5,16.5c0,10.671,12.629,11.5,16.5,11.5S40.5,37.671,40.5,27	C40.5,19.37,33.292,10.5,24,10.5z" opacity=".07"/><path fill="#fff" d="M24,11c-9.011,0-16,8.601-16,16c0,10.207,12.247,11,16,11s16-0.793,16-11C40,19.601,33.011,11,24,11 z"/><path d="M24,34c-3.281,0-6.193-1.716-7.418-4.372l2.724-1.257C20.031,29.944,21.917,31,24,31c2.126,0,4.026-1.085,4.727-2.701 l2.752,1.194C30.31,32.189,27.304,34,24,34z"/></svg>